<?xml version="1.0" encoding="utf-8"?>
<!-- Generator: Adobe Illustrator 24.0.0, SVG Export Plug-In . SVG Version: 6.00 Build 0)  -->
<svg version="1.1" id="Layer_1" xmlns="http://www.w3.org/2000/svg" xmlns:xlink="http://www.w3.org/1999/xlink" x="0px" y="0px"
	 viewBox="0 0 256 256" style="enable-background:new 0 0 256 256;" xml:space="preserve">
<style type="text/css">
	.st0{fill:#382B73;}
	.st1{fill:#291B4A;}
	.st2{fill:#ED9ABC;}
	.st3{fill:#E54890;}
	.st4{fill:#D3D3D3;}
	.st5{fill:#EBE7F2;}
	.st6{fill:#F9B087;}
	.st7{fill:#FF8639;}
	.st8{fill:#65C1D6;}
	.st9{fill:#149CB2;}
</style>
<g>
	<g>
		<g>
			<g>
				<g>
					<circle class="st0" cx="128" cy="128" r="119.4"/>
				</g>
			</g>
		</g>
	</g>
	<g>
		<g>
			<g>
				<g>
					<path class="st1" d="M54.868,73.367c0-1.381-1.119-2.5-2.5-2.5s-2.5,1.119-2.5,2.5v117.266c0,1.381,1.119,2.5,2.5,2.5h151.264
						c1.381,0,2.5-1.119,2.5-2.5s-1.119-2.5-2.5-2.5H58.403l109.131-109.13v7.269c0,1.381,1.119,2.5,2.5,2.5s2.5-1.119,2.5-2.5
						V72.967c0-1.381-1.119-2.5-2.5-2.5h-13.305c-1.381,0-2.5,1.119-2.5,2.5s1.119,2.5,2.5,2.5H164L54.868,184.597V73.367z"/>
				</g>
			</g>
		</g>
		<g>
			<g>
				<g>
					<path class="st1" d="M84.728,114.899c0,5.88,4.783,10.663,10.663,10.663s10.663-4.783,10.663-10.663
						s-4.783-10.663-10.663-10.663S84.728,109.02,84.728,114.899z M101.054,114.899c0,3.123-2.541,5.663-5.663,5.663
						s-5.663-2.54-5.663-5.663s2.541-5.663,5.663-5.663S101.054,111.776,101.054,114.899z"/>
				</g>
			</g>
		</g>
		<g>
			<g>
				<g>
					<path class="st1" d="M117.337,66.095c0,5.88,4.783,10.663,10.663,10.663s10.663-4.783,10.663-10.663S133.88,55.432,128,55.432
						S117.337,60.215,117.337,66.095z M133.663,66.095c0,3.123-2.541,5.663-5.663,5.663s-5.663-2.54-5.663-5.663
						s2.541-5.663,5.663-5.663S133.663,62.972,133.663,66.095z"/>
				</g>
			</g>
		</g>
		<g>
			<g>
				<g>
					<path class="st1" d="M65.463,95.417c0,5.88,4.783,10.663,10.663,10.663s10.663-4.783,10.663-10.663
						s-4.783-10.663-10.663-10.663S65.463,89.537,65.463,95.417z M81.789,95.417c0,3.123-2.541,5.663-5.663,5.663
						s-5.663-2.54-5.663-5.663s2.541-5.663,5.663-5.663S81.789,92.294,81.789,95.417z"/>
				</g>
			</g>
		</g>
		<g>
			<g>
				<g>
					<path class="st1" d="M120.232,141.929c0,5.88,4.783,10.663,10.663,10.663s10.663-4.783,10.663-10.663
						s-4.783-10.663-10.663-10.663S120.232,136.049,120.232,141.929z M136.559,141.929c0,3.123-2.541,5.663-5.663,5.663
						s-5.663-2.54-5.663-5.663s2.541-5.663,5.663-5.663S136.559,138.806,136.559,141.929z"/>
				</g>
			</g>
		</g>
		<g>
			<g>
				<g>
					<path class="st1" d="M152.425,127.345c5.88,0,10.663-4.783,10.663-10.663s-4.783-10.663-10.663-10.663
						c-5.879,0-10.663,4.783-10.663,10.663S146.545,127.345,152.425,127.345z M152.425,111.019c3.123,0,5.663,2.54,5.663,5.663
						s-2.541,5.663-5.663,5.663s-5.663-2.54-5.663-5.663S149.302,111.019,152.425,111.019z"/>
				</g>
			</g>
		</g>
		<g>
			<g>
				<g>
					<path class="st1" d="M136.559,167.579c0,5.88,4.783,10.663,10.663,10.663c5.88,0,10.663-4.783,10.663-10.663
						s-4.783-10.663-10.663-10.663C141.342,156.916,136.559,161.699,136.559,167.579z M147.221,161.916
						c3.123,0,5.663,2.54,5.663,5.663s-2.541,5.663-5.663,5.663s-5.663-2.54-5.663-5.663S144.099,161.916,147.221,161.916z"/>
				</g>
			</g>
		</g>
		<g>
			<g>
				<g>
					<path class="st1" d="M99.513,165.36c0,5.88,4.783,10.663,10.663,10.663c5.88,0,10.663-4.783,10.663-10.663
						s-4.783-10.663-10.663-10.663C104.296,154.697,99.513,159.48,99.513,165.36z M115.839,165.36c0,3.123-2.541,5.663-5.663,5.663
						s-5.663-2.54-5.663-5.663s2.54-5.663,5.663-5.663S115.839,162.237,115.839,165.36z"/>
				</g>
			</g>
		</g>
		<g>
			<g>
				<g>
					<path class="st1" d="M174.045,144.984c0-5.88-4.783-10.663-10.663-10.663s-10.663,4.783-10.663,10.663
						s4.783,10.663,10.663,10.663S174.045,150.864,174.045,144.984z M157.719,144.984c0-3.123,2.541-5.663,5.663-5.663
						s5.663,2.54,5.663,5.663s-2.541,5.663-5.663,5.663S157.719,148.107,157.719,144.984z"/>
				</g>
			</g>
		</g>
		<g>
			<g>
				<g>
					<path class="st1" d="M105.975,95.417c0,5.88,4.783,10.663,10.663,10.663s10.663-4.783,10.663-10.663
						s-4.783-10.663-10.663-10.663S105.975,89.537,105.975,95.417z M122.301,95.417c0,3.123-2.541,5.663-5.663,5.663
						s-5.663-2.54-5.663-5.663s2.541-5.663,5.663-5.663S122.301,92.294,122.301,95.417z"/>
				</g>
			</g>
		</g>
		<g>
			<g>
				<g>
					<path class="st1" d="M65.463,135.983c0,5.88,4.783,10.663,10.663,10.663s10.663-4.783,10.663-10.663
						s-4.783-10.663-10.663-10.663S65.463,130.104,65.463,135.983z M81.789,135.983c0,3.123-2.541,5.663-5.663,5.663
						s-5.663-2.54-5.663-5.663s2.541-5.663,5.663-5.663S81.789,132.86,81.789,135.983z"/>
				</g>
			</g>
		</g>
	</g>
	<g>
		<g>
			<g>
				<g>
					<g>
						<path class="st2" d="M52.664,186.337c0.488,0.488,1.128,0.732,1.768,0.732s1.28-0.244,1.768-0.732L170.511,72.025
							c0.977-0.977,0.977-2.559,0-3.535c-0.976-0.977-2.56-0.977-3.535,0L52.664,182.802
							C51.687,183.778,51.687,185.36,52.664,186.337z"/>
					</g>
				</g>
			</g>
			<g>
				<g>
					<g>
						<path class="st2" d="M170.034,84.771c1.381,0,2.5-1.119,2.5-2.5V68.967c0-1.381-1.119-2.5-2.5-2.5h-13.305
							c-1.381,0-2.5,1.119-2.5,2.5s1.119,2.5,2.5,2.5h10.805v10.805C167.534,83.652,168.653,84.771,170.034,84.771z"/>
					</g>
				</g>
			</g>
		</g>
		<g>
			<g>
				<g>
					<path class="st3" d="M52.664,186.337c0.488,0.488,1.128,0.732,1.768,0.732s1.28-0.244,1.768-0.732L167.534,75.002v7.269
						c0,1.381,1.119,2.5,2.5,2.5s2.5-1.119,2.5-2.5V68.967c0-1.381-1.119-2.5-2.5-2.5h-13.305c-1.381,0-2.5,1.119-2.5,2.5
						s1.119,2.5,2.5,2.5H164L52.664,182.802C51.687,183.778,51.687,185.36,52.664,186.337z M53.724,183.862L165.06,72.528
						c0.429-0.429,0.557-1.074,0.325-1.635s-0.779-0.926-1.386-0.926h-7.27c-0.551,0-1-0.448-1-1c0-0.551,0.449-1,1-1h13.305
						c0.551,0,1,0.449,1,1v13.305c0,0.552-0.449,1-1,1s-1-0.448-1-1v-7.269c0-0.607-0.365-1.154-0.926-1.386
						c-0.186-0.077-0.38-0.114-0.574-0.114c-0.39,0-0.774,0.152-1.061,0.439L55.138,185.277c-0.188,0.188-0.439,0.292-0.706,0.292
						c-0.267,0-0.518-0.104-0.707-0.293C53.334,184.886,53.334,184.252,53.724,183.862z"/>
				</g>
			</g>
		</g>
		<g>
			<g>
				<g>
					<path class="st8" d="M52.368,66.867c-1.381,0-2.5,1.119-2.5,2.5v117.266c0,1.381,1.119,2.5,2.5,2.5h151.264
						c1.381,0,2.5-1.119,2.5-2.5s-1.119-2.5-2.5-2.5H54.868V69.367C54.868,67.986,53.749,66.867,52.368,66.867z"/>
				</g>
			</g>
		</g>
		<g>
			<g>
				<g>
					<path class="st4" d="M84.728,110.899c0,5.88,4.783,10.663,10.663,10.663s10.663-4.783,10.663-10.663
						s-4.783-10.663-10.663-10.663S84.728,105.02,84.728,110.899z M101.054,110.899c0,3.123-2.541,5.663-5.663,5.663
						s-5.663-2.54-5.663-5.663s2.541-5.663,5.663-5.663S101.054,107.776,101.054,110.899z"/>
				</g>
			</g>
		</g>
		<g>
			<g>
				<g>
					<path class="st4" d="M117.337,62.095c0,5.88,4.783,10.663,10.663,10.663s10.663-4.783,10.663-10.663S133.88,51.432,128,51.432
						S117.337,56.215,117.337,62.095z M133.663,62.095c0,3.123-2.541,5.663-5.663,5.663s-5.663-2.54-5.663-5.663
						s2.541-5.663,5.663-5.663S133.663,58.972,133.663,62.095z"/>
				</g>
			</g>
		</g>
		<g>
			<g>
				<g>
					<path class="st8" d="M65.463,91.417c0,5.88,4.783,10.663,10.663,10.663s10.663-4.783,10.663-10.663
						s-4.783-10.663-10.663-10.663S65.463,85.537,65.463,91.417z M81.789,91.417c0,3.123-2.541,5.663-5.663,5.663
						s-5.663-2.54-5.663-5.663s2.541-5.663,5.663-5.663S81.789,88.294,81.789,91.417z"/>
				</g>
			</g>
		</g>
		<g>
			<g>
				<g>
					<path class="st8" d="M120.232,137.929c0,5.88,4.783,10.663,10.663,10.663s10.663-4.783,10.663-10.663
						s-4.783-10.663-10.663-10.663S120.232,132.049,120.232,137.929z M136.559,137.929c0,3.123-2.541,5.663-5.663,5.663
						s-5.663-2.54-5.663-5.663s2.541-5.663,5.663-5.663S136.559,134.806,136.559,137.929z"/>
				</g>
			</g>
		</g>
		<g>
			<g>
				<g>
					<path class="st8" d="M152.425,123.345c5.88,0,10.663-4.783,10.663-10.663s-4.783-10.663-10.663-10.663
						c-5.879,0-10.663,4.783-10.663,10.663S146.545,123.345,152.425,123.345z M152.425,107.019c3.123,0,5.663,2.54,5.663,5.663
						s-2.541,5.663-5.663,5.663s-5.663-2.54-5.663-5.663S149.302,107.019,152.425,107.019z"/>
				</g>
			</g>
		</g>
		<g>
			<g>
				<g>
					<path class="st8" d="M136.559,163.579c0,5.88,4.783,10.663,10.663,10.663c5.88,0,10.663-4.783,10.663-10.663
						s-4.783-10.663-10.663-10.663C141.342,152.916,136.559,157.699,136.559,163.579z M147.221,157.916
						c3.123,0,5.663,2.54,5.663,5.663s-2.541,5.663-5.663,5.663s-5.663-2.54-5.663-5.663S144.099,157.916,147.221,157.916z"/>
				</g>
			</g>
		</g>
		<g>
			<g>
				<g>
					<path class="st4" d="M99.513,161.36c0,5.88,4.783,10.663,10.663,10.663c5.88,0,10.663-4.783,10.663-10.663
						s-4.783-10.663-10.663-10.663C104.296,150.697,99.513,155.48,99.513,161.36z M115.839,161.36c0,3.123-2.541,5.663-5.663,5.663
						s-5.663-2.54-5.663-5.663s2.54-5.663,5.663-5.663S115.839,158.237,115.839,161.36z"/>
				</g>
			</g>
		</g>
		<g>
			<g>
				<g>
					<path class="st4" d="M174.045,140.984c0-5.88-4.783-10.663-10.663-10.663s-10.663,4.783-10.663,10.663
						s4.783,10.663,10.663,10.663S174.045,146.864,174.045,140.984z M157.719,140.984c0-3.123,2.541-5.663,5.663-5.663
						s5.663,2.54,5.663,5.663s-2.541,5.663-5.663,5.663S157.719,144.107,157.719,140.984z"/>
				</g>
			</g>
		</g>
		<g>
			<g>
				<g>
					<path class="st8" d="M105.975,91.417c0,5.88,4.783,10.663,10.663,10.663s10.663-4.783,10.663-10.663
						s-4.783-10.663-10.663-10.663S105.975,85.537,105.975,91.417z M122.301,91.417c0,3.123-2.541,5.663-5.663,5.663
						s-5.663-2.54-5.663-5.663s2.541-5.663,5.663-5.663S122.301,88.294,122.301,91.417z"/>
				</g>
			</g>
		</g>
		<g>
			<g>
				<g>
					<path class="st8" d="M65.463,131.983c0,5.88,4.783,10.663,10.663,10.663s10.663-4.783,10.663-10.663
						s-4.783-10.663-10.663-10.663S65.463,126.104,65.463,131.983z M81.789,131.983c0,3.123-2.541,5.663-5.663,5.663
						s-5.663-2.54-5.663-5.663s2.541-5.663,5.663-5.663S81.789,128.86,81.789,131.983z"/>
				</g>
			</g>
		</g>
		<g>
			<g>
				<g>
					<g>
						<path class="st9" d="M52.368,66.867c-1.381,0-2.5,1.119-2.5,2.5v117.266c0,1.381,1.119,2.5,2.5,2.5h151.264
							c1.381,0,2.5-1.119,2.5-2.5s-1.119-2.5-2.5-2.5H54.868V69.367C54.868,67.986,53.749,66.867,52.368,66.867z M203.632,185.633
							c0.551,0,1,0.448,1,1s-0.449,1-1,1H52.368c-0.551,0-1-0.448-1-1V69.367c0-0.552,0.449-1,1-1s1,0.448,1,1v114.766
							c0,0.828,0.672,1.5,1.5,1.5H203.632z"/>
					</g>
				</g>
			</g>
			<g>
				<g>
					<g>
						<path class="st9" d="M65.463,91.417c0,5.88,4.783,10.663,10.663,10.663s10.663-4.783,10.663-10.663
							s-4.783-10.663-10.663-10.663S65.463,85.537,65.463,91.417z M85.289,91.417c0,5.052-4.111,9.163-9.163,9.163
							s-9.163-4.111-9.163-9.163s4.111-9.163,9.163-9.163S85.289,86.365,85.289,91.417z"/>
						<path class="st9" d="M68.963,91.417c0,3.95,3.213,7.163,7.163,7.163c3.95,0,7.163-3.213,7.163-7.163s-3.213-7.163-7.163-7.163
							C72.176,84.254,68.963,87.467,68.963,91.417z M81.789,91.417c0,3.123-2.541,5.663-5.663,5.663s-5.663-2.54-5.663-5.663
							s2.541-5.663,5.663-5.663S81.789,88.294,81.789,91.417z"/>
					</g>
				</g>
			</g>
			<g>
				<g>
					<g>
						<path class="st9" d="M123.732,137.929c0,3.95,3.213,7.163,7.163,7.163c3.95,0,7.163-3.213,7.163-7.163
							s-3.213-7.163-7.163-7.163C126.946,130.766,123.732,133.979,123.732,137.929z M136.559,137.929
							c0,3.123-2.541,5.663-5.663,5.663s-5.663-2.54-5.663-5.663s2.541-5.663,5.663-5.663S136.559,134.806,136.559,137.929z"/>
						<path class="st9" d="M120.232,137.929c0,5.88,4.783,10.663,10.663,10.663s10.663-4.783,10.663-10.663
							s-4.783-10.663-10.663-10.663S120.232,132.049,120.232,137.929z M140.059,137.929c0,5.052-4.111,9.163-9.163,9.163
							s-9.163-4.111-9.163-9.163s4.111-9.163,9.163-9.163S140.059,132.876,140.059,137.929z"/>
					</g>
				</g>
			</g>
			<g>
				<g>
					<g>
						<path class="st9" d="M152.425,123.345c5.88,0,10.663-4.783,10.663-10.663s-4.783-10.663-10.663-10.663
							c-5.879,0-10.663,4.783-10.663,10.663S146.545,123.345,152.425,123.345z M152.425,103.519c5.053,0,9.163,4.111,9.163,9.163
							s-4.111,9.163-9.163,9.163c-5.052,0-9.163-4.111-9.163-9.163S147.373,103.519,152.425,103.519z"/>
						<path class="st9" d="M152.425,119.845c3.95,0,7.163-3.213,7.163-7.163s-3.213-7.163-7.163-7.163
							c-3.949,0-7.163,3.213-7.163,7.163S148.475,119.845,152.425,119.845z M152.425,107.019c3.123,0,5.663,2.54,5.663,5.663
							s-2.541,5.663-5.663,5.663s-5.663-2.54-5.663-5.663S149.302,107.019,152.425,107.019z"/>
					</g>
				</g>
			</g>
			<g>
				<g>
					<g>
						<path class="st9" d="M136.559,163.579c0,5.88,4.783,10.663,10.663,10.663c5.88,0,10.663-4.783,10.663-10.663
							s-4.783-10.663-10.663-10.663C141.342,152.916,136.559,157.699,136.559,163.579z M147.221,154.416
							c5.053,0,9.163,4.111,9.163,9.163s-4.111,9.163-9.163,9.163c-5.052,0-9.163-4.111-9.163-9.163
							S142.169,154.416,147.221,154.416z"/>
						<path class="st9" d="M147.221,170.742c3.95,0,7.163-3.213,7.163-7.163s-3.213-7.163-7.163-7.163
							c-3.949,0-7.163,3.213-7.163,7.163S143.272,170.742,147.221,170.742z M147.221,157.916c3.123,0,5.663,2.54,5.663,5.663
							s-2.541,5.663-5.663,5.663s-5.663-2.54-5.663-5.663S144.099,157.916,147.221,157.916z"/>
					</g>
				</g>
			</g>
			<g>
				<g>
					<g>
						<path class="st9" d="M105.975,91.417c0,5.88,4.783,10.663,10.663,10.663s10.663-4.783,10.663-10.663
							s-4.783-10.663-10.663-10.663S105.975,85.537,105.975,91.417z M125.801,91.417c0,5.052-4.111,9.163-9.163,9.163
							s-9.163-4.111-9.163-9.163s4.111-9.163,9.163-9.163S125.801,86.365,125.801,91.417z"/>
						<path class="st9" d="M109.475,91.417c0,3.95,3.213,7.163,7.163,7.163c3.95,0,7.163-3.213,7.163-7.163
							s-3.213-7.163-7.163-7.163C112.688,84.254,109.475,87.467,109.475,91.417z M122.301,91.417c0,3.123-2.541,5.663-5.663,5.663
							s-5.663-2.54-5.663-5.663s2.541-5.663,5.663-5.663S122.301,88.294,122.301,91.417z"/>
					</g>
				</g>
			</g>
			<g>
				<g>
					<g>
						<path class="st9" d="M65.463,131.983c0,5.88,4.783,10.663,10.663,10.663s10.663-4.783,10.663-10.663
							s-4.783-10.663-10.663-10.663S65.463,126.104,65.463,131.983z M85.289,131.983c0,5.052-4.111,9.163-9.163,9.163
							s-9.163-4.111-9.163-9.163s4.111-9.163,9.163-9.163S85.289,126.931,85.289,131.983z"/>
						<path class="st9" d="M68.963,131.983c0,3.95,3.213,7.163,7.163,7.163c3.95,0,7.163-3.213,7.163-7.163
							s-3.213-7.163-7.163-7.163C72.176,124.82,68.963,128.034,68.963,131.983z M81.789,131.983c0,3.123-2.541,5.663-5.663,5.663
							s-5.663-2.54-5.663-5.663s2.541-5.663,5.663-5.663S81.789,128.86,81.789,131.983z"/>
					</g>
				</g>
			</g>
		</g>
		<g>
			<g>
				<g>
					<g>
						<path class="st5" d="M88.228,110.899c0,3.95,3.213,7.163,7.163,7.163c3.95,0,7.163-3.213,7.163-7.163
							s-3.213-7.163-7.163-7.163C91.441,103.736,88.228,106.95,88.228,110.899z M101.054,110.899c0,3.123-2.541,5.663-5.663,5.663
							s-5.663-2.54-5.663-5.663s2.541-5.663,5.663-5.663S101.054,107.776,101.054,110.899z"/>
						<path class="st5" d="M84.728,110.899c0,5.88,4.783,10.663,10.663,10.663s10.663-4.783,10.663-10.663
							s-4.783-10.663-10.663-10.663S84.728,105.02,84.728,110.899z M104.554,110.899c0,5.052-4.111,9.163-9.163,9.163
							s-9.163-4.111-9.163-9.163s4.111-9.163,9.163-9.163S104.554,105.847,104.554,110.899z"/>
					</g>
				</g>
			</g>
			<g>
				<g>
					<g>
						<path class="st5" d="M120.837,62.095c0,3.95,3.213,7.163,7.163,7.163c3.95,0,7.163-3.213,7.163-7.163
							s-3.213-7.163-7.163-7.163C124.05,54.932,120.837,58.145,120.837,62.095z M133.663,62.095c0,3.123-2.541,5.663-5.663,5.663
							s-5.663-2.54-5.663-5.663s2.541-5.663,5.663-5.663S133.663,58.972,133.663,62.095z"/>
						<path class="st5" d="M117.337,62.095c0,5.88,4.783,10.663,10.663,10.663s10.663-4.783,10.663-10.663S133.88,51.432,128,51.432
							S117.337,56.215,117.337,62.095z M137.163,62.095c0,5.052-4.111,9.163-9.163,9.163s-9.163-4.111-9.163-9.163
							s4.111-9.163,9.163-9.163S137.163,57.042,137.163,62.095z"/>
					</g>
				</g>
			</g>
			<g>
				<g>
					<g>
						<path class="st5" d="M103.013,161.36c0,3.95,3.213,7.163,7.163,7.163c3.95,0,7.163-3.213,7.163-7.163
							s-3.213-7.163-7.163-7.163C106.226,154.197,103.013,157.411,103.013,161.36z M115.839,161.36c0,3.123-2.541,5.663-5.663,5.663
							s-5.663-2.54-5.663-5.663s2.54-5.663,5.663-5.663S115.839,158.237,115.839,161.36z"/>
						<path class="st5" d="M99.513,161.36c0,5.88,4.783,10.663,10.663,10.663c5.88,0,10.663-4.783,10.663-10.663
							s-4.783-10.663-10.663-10.663C104.296,150.697,99.513,155.48,99.513,161.36z M119.339,161.36c0,5.052-4.111,9.163-9.163,9.163
							c-5.052,0-9.163-4.111-9.163-9.163s4.11-9.163,9.163-9.163C115.228,152.197,119.339,156.308,119.339,161.36z"/>
					</g>
				</g>
			</g>
			<g>
				<g>
					<g>
						<path class="st5" d="M170.545,140.984c0-3.95-3.213-7.163-7.163-7.163c-3.95,0-7.163,3.213-7.163,7.163
							s3.213,7.163,7.163,7.163C167.332,148.147,170.545,144.934,170.545,140.984z M157.719,140.984
							c0-3.123,2.541-5.663,5.663-5.663s5.663,2.54,5.663,5.663s-2.541,5.663-5.663,5.663S157.719,144.107,157.719,140.984z"/>
						<path class="st5" d="M174.045,140.984c0-5.88-4.783-10.663-10.663-10.663s-10.663,4.783-10.663,10.663
							s4.783,10.663,10.663,10.663S174.045,146.864,174.045,140.984z M154.219,140.984c0-5.052,4.111-9.163,9.163-9.163
							s9.163,4.111,9.163,9.163s-4.111,9.163-9.163,9.163S154.219,146.037,154.219,140.984z"/>
					</g>
				</g>
			</g>
		</g>
	</g>
</g>
</svg>
