<?xml version="1.0" encoding="utf-8"?>
<!-- Generator: Adobe Illustrator 22.0.0, SVG Export Plug-In . SVG Version: 6.00 Build 0)  -->
<svg version="1.1" id="Icon_Set" xmlns="http://www.w3.org/2000/svg" xmlns:xlink="http://www.w3.org/1999/xlink" x="0px" y="0px"
	 viewBox="0 0 64 64" style="enable-background:new 0 0 64 64;" xml:space="preserve">
<style type="text/css">
	.st0{fill:#40C4FF;}
	.st1{fill:#263238;}
	.st2{fill:#FFD740;}
	.st3{fill:#FF5252;}
	.st4{fill:#4DB6AC;}
	.st5{fill:#FFFFFF;}
	.st6{fill:#4FC3F7;}
	.st7{fill:#37474F;}
</style>
<g>
	<g>
		<path class="st1" d="M48.621,6.5h-4c-0.276,0-0.5-0.224-0.5-0.5s0.224-0.5,0.5-0.5h4c0.276,0,0.5,0.224,0.5,0.5
			S48.897,6.5,48.621,6.5z"/>
	</g>
	<g>
		<path class="st1" d="M46.621,8.5c-0.276,0-0.5-0.224-0.5-0.5V4c0-0.276,0.224-0.5,0.5-0.5s0.5,0.224,0.5,0.5v4
			C47.121,8.276,46.897,8.5,46.621,8.5z"/>
	</g>
	<g>
		<path class="st1" d="M41.621,13h-4c-0.276,0-0.5-0.224-0.5-0.5s0.224-0.5,0.5-0.5h4c0.276,0,0.5,0.224,0.5,0.5
			S41.897,13,41.621,13z"/>
	</g>
	<g>
		<path class="st1" d="M39.621,15c-0.276,0-0.5-0.224-0.5-0.5v-4c0-0.276,0.224-0.5,0.5-0.5s0.5,0.224,0.5,0.5v4
			C40.121,14.776,39.897,15,39.621,15z"/>
	</g>
	<g>
		<polyline class="st3" points="45.035,29.803 48.811,33.578 46.121,36.268 53.621,36.268 53.621,28.768 50.932,31.457 
			47.156,27.682 		"/>
		<path class="st1" d="M53.621,36.768h-7.5c-0.202,0-0.385-0.122-0.462-0.309c-0.078-0.187-0.035-0.402,0.108-0.545l2.336-2.336
			l-3.422-3.422c-0.195-0.195-0.195-0.512,0-0.707s0.512-0.195,0.707,0l3.775,3.775c0.195,0.195,0.195,0.512,0,0.707l-1.836,1.836
			h5.793v-5.793l-1.836,1.836c-0.195,0.195-0.512,0.195-0.707,0l-3.775-3.775c-0.195-0.195-0.195-0.512,0-0.707s0.512-0.195,0.707,0
			l3.422,3.422l2.336-2.336c0.143-0.143,0.358-0.187,0.545-0.108c0.187,0.077,0.309,0.26,0.309,0.462v7.5
			C54.121,36.544,53.897,36.768,53.621,36.768z"/>
	</g>
	<g>
		<polyline class="st3" points="42.207,22.732 40.742,21.268 31.551,21.268 23.121,15.999 14.326,21.496 15.916,24.04 
			23.121,19.537 30.691,24.268 39.5,24.268 40.086,24.853 		"/>
		<path class="st1" d="M40.086,25.354c-0.128,0-0.256-0.049-0.354-0.146l-0.439-0.439h-8.602c-0.094,0-0.186-0.026-0.265-0.076
			l-7.305-4.565l-6.94,4.337c-0.113,0.071-0.249,0.093-0.377,0.063c-0.129-0.03-0.241-0.11-0.312-0.222l-1.59-2.544
			c-0.146-0.234-0.075-0.543,0.159-0.689l8.795-5.497c0.162-0.102,0.368-0.102,0.53,0l8.309,5.193h9.047
			c0.133,0,0.26,0.053,0.354,0.146l1.465,1.465c0.195,0.195,0.195,0.512,0,0.707s-0.512,0.195-0.707,0l-1.318-1.318h-8.984
			c-0.094,0-0.186-0.026-0.265-0.076l-8.165-5.103l-8.106,5.066l1.06,1.696l6.781-4.238c0.162-0.102,0.368-0.102,0.53,0l7.448,4.655
			H39.5c0.133,0,0.26,0.053,0.354,0.146l0.586,0.586c0.195,0.195,0.195,0.512,0,0.707C40.342,25.305,40.214,25.354,40.086,25.354z"
			/>
	</g>
	<g>
		<path class="st1" d="M61,55.5H3c-0.276,0-0.5-0.224-0.5-0.5s0.224-0.5,0.5-0.5h58c0.276,0,0.5,0.224,0.5,0.5S61.276,55.5,61,55.5z
			"/>
	</g>
	<g>
		<path class="st1" d="M8,60.5c-0.276,0-0.5-0.224-0.5-0.5V4c0-0.276,0.224-0.5,0.5-0.5S8.5,3.724,8.5,4v56
			C8.5,60.276,8.276,60.5,8,60.5z"/>
	</g>
	<g>
		<polygon class="st2" points="54.242,45.768 48.939,40.464 48.939,44.268 44.551,44.268 36.166,39.027 27.382,43.907 
			16.182,32.707 14.061,34.828 26.86,47.628 36.076,42.508 43.691,47.268 48.939,47.268 48.939,51.071 		"/>
		<path class="st1" d="M48.939,51.571c-0.064,0-0.129-0.012-0.191-0.038c-0.187-0.077-0.309-0.26-0.309-0.462v-3.303h-4.749
			c-0.094,0-0.186-0.026-0.265-0.076l-7.365-4.603l-8.958,4.977c-0.195,0.109-0.438,0.074-0.596-0.083l-12.8-12.8
			c-0.195-0.195-0.195-0.512,0-0.707l2.121-2.121c0.195-0.195,0.512-0.195,0.707,0l10.934,10.933l8.455-4.697
			c0.159-0.089,0.353-0.084,0.508,0.013l8.264,5.165h3.745v-3.303c0-0.202,0.122-0.385,0.309-0.462
			c0.188-0.078,0.401-0.034,0.545,0.108l5.303,5.303c0.195,0.195,0.195,0.512,0,0.707l-5.303,5.303
			C49.197,51.52,49.069,51.571,48.939,51.571z M43.834,46.768h5.105c0.276,0,0.5,0.224,0.5,0.5v2.596l4.096-4.096l-4.096-4.096
			v2.596c0,0.276-0.224,0.5-0.5,0.5h-4.388c-0.094,0-0.186-0.026-0.265-0.076l-8.135-5.084l-8.526,4.737
			c-0.194,0.109-0.438,0.075-0.596-0.083L16.182,33.414l-1.414,1.414l12.18,12.18l8.886-4.937c0.159-0.089,0.353-0.084,0.508,0.013
			L43.834,46.768z"/>
	</g>
	<g>
		<polyline class="st0" points="21.16,34.857 25.647,31.268 40.742,31.268 50.932,21.078 53.621,23.768 53.621,16.268 
			46.121,16.268 48.811,18.957 39.5,28.268 24.595,28.268 19.026,32.723 		"/>
		<path class="st1" d="M21.161,35.357c-0.147,0-0.292-0.064-0.391-0.188c-0.172-0.216-0.137-0.53,0.078-0.703l4.487-3.59
			c0.089-0.071,0.199-0.109,0.312-0.109h14.888l10.043-10.043c0.195-0.195,0.512-0.195,0.707,0l1.836,1.836v-5.793h-5.793
			l1.836,1.836c0.195,0.195,0.195,0.512,0,0.707l-9.311,9.311c-0.094,0.094-0.221,0.146-0.354,0.146H24.77l-5.432,4.346
			c-0.216,0.173-0.53,0.137-0.703-0.078c-0.172-0.216-0.137-0.53,0.078-0.703l5.569-4.455c0.089-0.071,0.199-0.109,0.312-0.109
			h14.698l8.811-8.811l-2.336-2.336c-0.143-0.143-0.186-0.358-0.108-0.545c0.077-0.187,0.26-0.309,0.462-0.309h7.5
			c0.276,0,0.5,0.224,0.5,0.5v7.5c0,0.202-0.122,0.385-0.309,0.462c-0.186,0.079-0.401,0.036-0.545-0.108l-2.336-2.336l-9.836,9.836
			c-0.094,0.094-0.221,0.146-0.354,0.146H25.823l-4.35,3.48C21.38,35.322,21.27,35.357,21.161,35.357z"/>
	</g>
</g>
</svg>
